<?xml version="1.0" encoding="UTF-8"?>
<svg width="679px" height="160px" viewBox="0 0 679 160" version="1.1" xmlns="http://www.w3.org/2000/svg" xmlns:xlink="http://www.w3.org/1999/xlink">
    <title>Group 2</title>
    <g id="Page-1" stroke="none" stroke-width="1" fill="none" fill-rule="evenodd">
        <g id="logo2" transform="translate(-132.000000, -53.000000)" fill-rule="nonzero">
            <g id="Group-2" transform="translate(132.000000, 53.000000)">
                <g id="Group-3" transform="translate(250.000000, 15.000000)">
                    <path d="M15.5609756,96 C16.5447154,96 17.3495935,95.6833333 17.9756098,95.05 C18.601626,94.4166667 18.9146341,93.647619 18.9146341,92.7428571 L18.9146341,92.7428571 L18.9146341,56.5071429 L58.0853659,56.5071429 L58.0853659,92.7428571 C58.0853659,93.647619 58.398374,94.4166667 59.0243902,95.05 C59.6504065,95.6833333 60.4105691,96 61.304878,96 L61.304878,96 L73.7804878,96 C74.7642276,96 75.546748,95.6833333 76.1280488,95.05 C76.7093496,94.4166667 77,93.647619 77,92.7428571 L77,92.7428571 L77,4.39285714 C77,3.39761905 76.7093496,2.58333333 76.1280488,1.95 C75.546748,1.31666667 74.7642276,1 73.7804878,1 L73.7804878,1 L61.304878,1 C60.4105691,1 59.6504065,1.31666667 59.0243902,1.95 C58.398374,2.58333333 58.0853659,3.39761905 58.0853659,4.39285714 L58.0853659,4.39285714 L58.0853659,39.2714286 L18.9146341,39.2714286 L18.9146341,4.39285714 C18.9146341,3.39761905 18.601626,2.58333333 17.9756098,1.95 C17.3495935,1.31666667 16.5447154,1 15.5609756,1 L15.5609756,1 L3.2195122,1 C2.23577236,1 1.45325203,1.31666667 0.87195122,1.95 C0.290650407,2.58333333 0,3.39761905 0,4.39285714 L0,4.39285714 L0,92.7428571 C0,93.647619 0.31300813,94.4166667 0.93902439,95.05 C1.56504065,95.6833333 2.32520325,96 3.2195122,96 L3.2195122,96 L15.5609756,96 Z" id="Path" fill="#C0392B"></path>
                    <path d="M117.4,97 C127.266667,97 134.644444,93.6509434 139.533333,86.9528302 L139.533333,86.9528302 L139.533333,92.445283 C139.533333,93.3383648 139.844444,94.0974843 140.466667,94.7226415 C141.088889,95.3477987 141.844444,95.6603774 142.733333,95.6603774 L142.733333,95.6603774 L153.8,95.6603774 C154.777778,95.6603774 155.555556,95.3477987 156.133333,94.7226415 C156.711111,94.0974843 157,93.3383648 157,92.445283 L157,92.445283 L157,29.2150943 C157,28.2327044 156.711111,27.4512579 156.133333,26.8707547 C155.555556,26.2902516 154.777778,26 153.8,26 L153.8,26 L141.933333,26 C141.044444,26 140.288889,26.2902516 139.666667,26.8707547 C139.044444,27.4512579 138.733333,28.2327044 138.733333,29.2150943 L138.733333,29.2150943 L138.733333,66.054717 C138.733333,71.145283 137.377778,75.1641509 134.666667,78.1113208 C131.955556,81.0584906 128.288889,82.5320755 123.666667,82.5320755 C114.155556,82.5320755 109.4,77.0396226 109.4,66.054717 L109.4,66.054717 L109.4,29.2150943 C109.4,28.3220126 109.088889,27.5628931 108.466667,26.9377358 C107.844444,26.3125786 107.088889,26 106.2,26 L106.2,26 L94.2,26 C93.3111111,26 92.5555556,26.2902516 91.9333333,26.8707547 C91.3111111,27.4512579 91,28.2327044 91,29.2150943 L91,29.2150943 L91,66.8584906 C91,76.2358491 93.3555556,83.6037736 98.0666667,88.9622642 C102.777778,94.3207547 109.222222,97 117.4,97 Z M199.405993,95.8414634 C208.97121,95.8414634 216.427732,93.9402288 221.775558,90.1377597 C227.123384,86.3352906 229.797297,81.3661548 229.797297,75.2303523 C229.797297,64.6871424 221.97121,57.9031918 206.319036,54.8785005 C201.275558,53.9278832 197.492949,52.9988708 194.97121,52.0914634 C192.449471,51.184056 190.775558,50.2118338 189.949471,49.1747967 C189.123384,48.1377597 188.710341,46.8414634 188.710341,45.2859079 C188.710341,43.0389943 189.579906,41.2241795 191.319036,39.8414634 C193.058167,38.4587474 195.536428,37.7673893 198.753819,37.7673893 C201.101645,37.7673893 203.101645,38.1130684 204.753819,38.8044264 C206.405993,39.4957844 207.905993,40.4247967 209.253819,41.5914634 C210.601645,42.7581301 211.579906,43.5575128 212.188602,43.9896116 C212.710341,44.6809696 213.449471,45.0266486 214.405993,45.0266486 L214.405993,45.0266486 L224.188602,45.0266486 C224.97121,45.0266486 225.645123,44.7457844 226.210341,44.184056 C226.775558,43.6223276 227.058167,42.9525745 227.058167,42.1747967 C227.058167,40.1871424 225.949471,37.897019 223.73208,35.3044264 C221.514689,32.7118338 218.275558,30.4865251 214.014689,28.6285005 C209.753819,26.7704758 204.666863,25.8414634 198.753819,25.8414634 C193.014689,25.8414634 188.079906,26.8136856 183.949471,28.7581301 C179.819036,30.7025745 176.710341,33.2087474 174.623384,36.2766486 C172.536428,39.3445498 171.492949,42.6068955 171.492949,46.0636856 C171.492949,51.3352906 173.253819,55.5698585 176.775558,58.7673893 C180.297297,61.9649202 185.753819,64.3414634 193.145123,65.897019 C198.275558,67.0204758 202.123384,68.0359079 204.688602,68.9433153 C207.253819,69.8507227 209.036428,70.8445498 210.036428,71.9247967 C211.036428,73.0050437 211.536428,74.4093646 211.536428,76.1377597 C211.536428,78.6439326 210.449471,80.5667721 208.275558,81.9062782 C206.101645,83.2457844 203.275558,83.9155375 199.797297,83.9155375 C197.449471,83.9155375 195.297297,83.5482535 193.340776,82.8136856 C191.384254,82.0791177 189.645123,81.0636856 188.123384,79.7673893 C186.601645,78.471093 185.623384,77.6501054 185.188602,77.3044264 C184.666863,76.6130684 184.058167,76.2673893 183.362515,76.2673893 L183.362515,76.2673893 L172.666863,76.2673893 C171.884254,76.2673893 171.210341,76.5266486 170.645123,77.0451671 C170.079906,77.5636856 169.797297,78.2550437 169.797297,79.1192412 C169.797297,81.0204758 170.862515,83.2889943 172.992949,85.9247967 C175.123384,88.5605992 178.405993,90.8723276 182.840776,92.8599819 C187.275558,94.8476363 192.797297,95.8414634 199.405993,95.8414634 Z M256.151038,95.8414634 C257.035249,95.8414634 257.786828,95.5292568 258.405775,94.9048437 C259.024723,94.2804306 259.334196,93.5222146 259.334196,92.6301958 L259.334196,92.6301958 L259.334196,66.6724493 L284.401565,93.5668155 C285.285775,94.4588343 286.015249,95.060947 286.589986,95.3731536 C287.164723,95.6853601 288.071038,95.8414634 289.308933,95.8414634 L289.308933,95.8414634 L302.174196,95.8414634 C302.969986,95.8414634 303.633144,95.5738578 304.16367,95.0386465 C304.694196,94.5034352 304.959459,93.7898202 304.959459,92.8978014 C304.959459,92.1841864 304.561565,91.4259705 303.765775,90.6231536 L303.765775,90.6231536 L273.393144,57.440055 L300.449986,31.6161113 C301.334196,30.8132944 301.776302,30.0104775 301.776302,29.2076606 C301.776302,28.3156418 301.511038,27.6020268 300.980512,27.0668155 C300.449986,26.5316043 299.742617,26.2639986 298.858407,26.2639986 L298.858407,26.2639986 L286.258407,26.2639986 C285.462617,26.2639986 284.799459,26.3532005 284.268933,26.5316043 C283.738407,26.710008 283.185775,27.0445151 282.611038,27.5351254 C282.036302,28.0257357 281.616302,28.3602428 281.351038,28.5386465 L281.351038,28.5386465 L259.334196,49.8132944 L259.334196,4.05273102 C259.334196,3.16071224 259.024723,2.40249628 258.405775,1.77808313 C257.786828,1.15366999 257.035249,0.841463415 256.151038,0.841463415 L256.151038,0.841463415 L245.142617,0.841463415 C244.258407,0.841463415 243.506828,1.13136952 242.887881,1.71118172 C242.268933,2.29099393 241.959459,3.07151036 241.959459,4.05273102 L241.959459,4.05273102 L241.959459,92.6301958 C241.959459,93.5222146 242.268933,94.2804306 242.887881,94.9048437 C243.506828,95.5292568 244.258407,95.8414634 245.142617,95.8414634 L245.142617,95.8414634 L256.151038,95.8414634 Z M398.783269,94.6829268 C399.666799,94.6829268 400.417799,94.3762117 401.036271,93.7627814 C401.654742,93.1493512 401.963977,92.4044715 401.963977,91.5281426 L401.963977,91.5281426 L401.963977,55.5110225 C401.963977,51.3922764 403.156743,48.1498593 405.542274,45.7837711 C407.927806,43.4176829 411.196867,42.2346388 415.349459,42.2346388 L415.349459,42.2346388 L425.819291,42.2346388 C426.791175,42.2346388 427.564263,41.9279237 428.138558,41.3144934 C428.712853,40.7010632 429,39.9561836 429,39.0798546 L429,39.0798546 L429,29.4840525 C429,28.5200907 428.712853,27.7533028 428.138558,27.183689 C427.564263,26.6140752 426.791175,26.3292683 425.819291,26.3292683 L425.819291,26.3292683 L420.253051,26.3292683 C411.947868,26.3292683 405.586451,29.2211538 401.1688,35.004925 L401.1688,35.004925 L401.1688,29.6155019 C401.1688,28.65154 400.859564,27.862844 400.241093,27.2494137 C399.622622,26.6359834 398.827445,26.3292683 397.855562,26.3292683 L397.855562,26.3292683 L386.988141,26.3292683 C386.104611,26.3292683 385.35361,26.6359834 384.735139,27.2494137 C384.116668,27.862844 383.807432,28.65154 383.807432,29.6155019 L383.807432,29.6155019 L383.807432,91.5281426 C383.807432,92.4044715 384.116668,93.1493512 384.735139,93.7627814 C385.35361,94.3762117 386.104611,94.6829268 386.988141,94.6829268 L386.988141,94.6829268 L398.783269,94.6829268 Z" id="Husker" fill="#2C3E50"></path>
                    <path d="M338.935354,26 C349.192593,26 357.10101,29.1111111 362.660606,35.3333333 C368.220202,41.5555556 371,49.8518519 371,60.2222222 L371,60.2222222 L371,62.9444444 L370.993715,63.1577932 C370.947624,63.9301698 370.648036,64.5936214 370.094949,65.1481481 C369.491582,65.7530864 368.715825,66.0555556 367.767677,66.0555556 L367.767677,66.0555556 L324.842424,66.0555556 L324.842424,67.0925926 L324.865265,67.6078869 C325.110163,72.2165179 326.417027,76.0416667 328.785859,79.0833333 C331.242424,82.2376543 334.625589,83.8148148 338.935354,83.8148148 C343.848485,83.8148148 347.856566,81.8271605 350.959596,77.8518519 C351.735354,76.9012346 352.338721,76.3179012 352.769697,76.1018519 C353.200673,75.8858025 353.933333,75.7777778 354.967677,75.7777778 L354.967677,75.7777778 L366.345455,75.7777778 L366.60005,75.7857796 C367.268329,75.828456 367.851478,76.0418381 368.349495,76.4259259 C368.909764,76.8580247 369.189899,77.462963 369.189899,78.2407407 C369.189899,80.3148148 367.961616,82.7561728 365.505051,85.5648148 C363.048485,88.3734568 359.536027,90.8148148 354.967677,92.8888889 C350.399327,94.962963 345.098316,96 339.064646,96 C329.410774,96 321.760943,93.2345679 316.115152,87.7037037 C310.46936,82.1728395 307.474074,74.308642 307.129293,64.1111111 L307.129293,64.1111111 L307,60.8703704 L307.003132,60.2496918 C307.109617,49.7413503 309.931469,41.4358974 315.468687,35.3333333 C321.114478,29.1111111 328.9367,26 338.935354,26 Z M339.43379,39 C334.931507,39 331.400304,40.5239899 328.840183,43.5719697 C326.280061,46.6199495 325,50.6767677 325,55.7424242 L325,55.7424242 L325,56 L354,56 L354,55.7424242 L353.99566,55.2392214 C353.911744,50.4074341 352.61106,46.5183502 350.093607,43.5719697 C347.489346,40.5239899 343.936073,39 339.43379,39 Z" id="Combined-Shape" fill="#2C3E50"></path>
                </g>
                <g id="box">
                    <g id="Group" transform="translate(62.000000, 0.000000)">
                        <path d="M122.580596,64.3698345 C122.294349,74.2701583 121.635339,84.1701007 120.596046,94.0746187 C120.046872,99.3151367 115.865624,103.386604 110.688339,103.803741 C77.9173028,106.43582 45.1466422,106.43582 12.3756055,103.803741 C7.19418349,103.386223 3.01293578,99.3147554 2.46376147,94.0746187 C2.4126055,93.5816043 2.36182569,93.0924029 2.31480734,92.5993885 C-0.403229358,65.7337266 -0.352449541,38.8638705 2.46376147,11.9982086 C3.01293578,6.76188489 7.19418349,2.68660432 12.3756055,2.26908633 C22.8757431,1.42604317 33.3796422,0.853719424 43.8835413,0.551352518 C55.6505413,0.21352518 67.4134037,0.21352518 79.1804037,0.551352518 C89.6843028,0.853719424 100.18444,1.42604317 110.688339,2.26908633 C115.865624,2.68660432 120.046872,6.76188489 120.596046,11.9982086 C122.423743,29.4565612 123.08689,46.9111007 122.580596,64.3698345 Z" id="Path" fill="#34495E"></path>
                        <path d="M122.580596,64.3698345 C122.294349,74.2701583 121.635339,84.1701007 120.596046,94.0746187 C120.046872,99.3151367 115.865624,103.386604 110.688339,103.803741 C77.9173028,106.43582 45.1466422,106.43582 12.3756055,103.803741 C7.19418349,103.386223 3.01293578,99.3147554 2.46376147,94.0746187 C2.4126055,93.5816043 2.36182569,93.0924029 2.31480734,92.5993885 C4.17786239,86.5558633 12.5403578,80.1386691 42.3025963,84.9456547 C92.6182477,93.0725755 122.580596,64.3698345 122.580596,64.3698345 Z" id="Path" fill="#2C3E50"></path>
                        <path d="M18.6907339,104.277691 C16.5843119,104.130511 14.4782661,103.975324 12.371844,103.804504 C7.19418349,103.386986 3.01331193,99.315518 2.46413761,94.0753813 C-0.402853211,66.716705 -0.402853211,39.3576475 2.46413761,11.9989712 C3.01331193,6.76264748 7.19455963,2.68736691 12.371844,2.26984892 C14.4778899,2.10284173 16.5843119,1.94384173 18.6907339,1.79666187 C16.7453028,3.65356835 15.438945,6.1861295 15.1410367,9.04088489 C12.0660367,38.3716187 12.0660367,67.7027338 15.1410367,97.0334676 C15.4393211,99.888223 16.7453028,102.424597 18.6907339,104.277691 Z" id="Path" fill="#2C3E50"></path>
                        <path d="M79.1804037,0.551352518 L79.1804037,41.9573165 L61.5300917,29.4924029 L43.8835413,41.9573165 L43.8835413,0.551352518 C55.6505413,0.213143885 67.4134037,0.213143885 79.1804037,0.551352518 Z" id="Path" fill="#C0392B"></path>
                    </g>
                    <g id="Group" transform="translate(0.000000, 53.000000)">
                        <path d="M198.288812,39.5748227 L198.285409,39.5748227 L147.422046,80.5144645 C143.242138,83.879273 137.878667,85.4118014 132.555655,84.7599362 L64.003122,76.3885142 L45.7372945,83.1682163 C35.9250607,73.0426773 39.9571178,40.4623156 39.9571178,40.4623156 L44.3071867,39.2678617 C43.9298076,33.4356028 46.6709107,27.6439433 51.7590998,24.3303582 C52.3202526,23.9619291 52.9086312,23.6272695 53.5276388,23.3237234 L82.9235018,8.91856383 L98.0413525,1.50938298 C98.8645532,1.10680496 99.7043918,0.789219858 100.558221,0.557386525 C106.877241,-1.17965603 113.737372,1.60841489 116.971942,7.58751418 C120.641745,14.3755638 118.32907,22.8596773 111.727205,26.8285426 L87.2905868,41.5235887 L128.413183,48.7108014 C133.36184,49.5743901 138.453054,48.5298121 142.670398,45.7827199 L183.568759,19.1427553 C189.054747,15.5662234 196.353515,16.8084858 200.363262,21.9991241 C201.400488,23.3438333 202.128398,24.8350035 202.553422,26.3846064 C203.83946,31.0941241 202.318978,36.329156 198.288812,39.5748227 L198.288812,39.5748227 Z" id="Path" fill="#FFCBBE"></path>
                        <path d="M132.443349,73.7639787 C104.281342,77.4346099 84.8663611,60.8636489 73.119965,45.2735213 C67.2955464,37.5433404 69.2595813,26.4862943 77.3902474,21.2565745 C105.749263,3.01610993 113.084333,3.68618794 116.971942,7.58675532 C113.737372,1.60765603 106.877241,-1.18079433 100.558221,0.55662766 C99.7043918,0.788840426 98.8645532,1.1060461 98.0413525,1.50862411 L82.9235018,8.91780496 L59.0975723,20.5937057 C59.0975723,20.5937057 59.0953035,20.5975 59.0945472,20.5982589 L53.5276388,23.3229645 C47.3137408,26.3671525 43.888969,32.7901879 44.3071867,39.2674823 L29.8242251,44.2627128 C29.8242251,44.2627128 35.9250607,73.0422979 45.7372945,83.1682163 L64.003122,76.3885142 L132.555655,84.7599362 C137.878288,85.4118014 143.242138,83.879273 147.422046,80.5144645 L198.285409,39.5748227 C180.708544,34.7901773 151.411374,70.8529716 132.443349,73.7639787 Z" id="Path" fill="#EAAC9D"></path>
                        <ellipse id="Oval" fill="#2C3E50" transform="translate(30.332014, 65.483367) rotate(-19.449569) translate(-30.332014, -65.483367) " cx="30.3320144" cy="65.4833667" rx="18.3663869" ry="37.1250777"></ellipse>
                    </g>
                </g>
            </g>
        </g>
    </g>
</svg>